<?xml version="1.0" standalone="no"?>
<!DOCTYPE svg PUBLIC "-//W3C//DTD SVG 20010904//EN"
 "http://www.w3.org/TR/2001/REC-SVG-20010904/DTD/svg10.dtd">
<svg version="1.0" xmlns="http://www.w3.org/2000/svg"
 width="239.000000pt" height="239.000000pt" viewBox="0 0 239.000000 239.000000"
 preserveAspectRatio="xMidYMid meet">
<metadata>
Created by potrace 1.14, written by Peter Selinger 2001-2017
</metadata>
<g transform="translate(0.000000,239.000000) scale(0.100000,-0.100000)"
fill="#000000" stroke="none">
<path d="M1083 2291 c-23 -11 -59 -38 -81 -61 -44 -44 -45 -46 -182 -435 -112
-316 -228 -635 -245 -672 -18 -38 -19 -131 -3 -187 18 -61 101 -140 168 -160
67 -20 93 -20 157 -1 69 21 133 80 165 152 44 98 44 98 -1 112 -22 6 -62 29
-89 50 -52 41 -117 130 -105 142 13 12 226 77 325 100 102 23 265 36 320 25
l35 -6 -8 -47 c-24 -124 -117 -230 -247 -279 -1 -1 11 -34 27 -75 22 -55 42
-85 77 -117 158 -144 404 -53 438 163 9 53 2 76 -158 515 -76 206 -162 444
-193 527 -61 168 -94 216 -176 254 -57 25 -167 25 -224 0z m228 -590 c28 -11
62 -27 75 -36 l25 -16 -32 -37 c-80 -90 -206 -169 -318 -198 -83 -21 -135 -12
-179 32 l-33 33 26 51 c42 84 125 153 215 181 50 15 168 10 221 -10z"/>
<path d="M239 308 c-15 -40 -38 -103 -52 -140 l-26 -68 33 0 c29 0 34 4 40 30
5 29 7 30 60 30 51 0 55 -2 65 -30 7 -23 16 -30 35 -30 15 0 26 6 25 13 0 6
-22 68 -47 137 -45 119 -49 125 -77 128 -29 3 -31 0 -56 -70z m85 -75 c7 -21
4 -23 -28 -23 -20 0 -36 1 -36 3 0 2 8 26 17 53 l17 49 12 -30 c6 -17 15 -40
18 -52z"/>
<path d="M1260 240 l0 -140 30 0 30 0 0 93 0 92 56 -92 c49 -84 58 -93 85 -93
l29 0 0 140 0 140 -30 0 -29 0 -3 -91 -3 -90 -54 90 c-47 81 -56 91 -82 91
l-29 0 0 -140z"/>
<path d="M670 335 c0 -16 -6 -25 -15 -25 -8 0 -15 -9 -15 -20 0 -11 7 -20 15
-20 12 0 15 -15 15 -73 0 -82 9 -97 57 -97 26 0 33 4 33 19 0 10 -9 21 -20 24
-17 4 -20 14 -20 66 0 54 2 61 20 61 13 0 20 7 20 20 0 13 -7 20 -20 20 -15 0
-20 7 -20 25 0 20 -5 25 -25 25 -20 0 -25 -5 -25 -25z"/>
<path d="M472 294 c-30 -21 -30 -69 1 -88 12 -8 36 -17 54 -21 38 -8 50 -31
23 -45 -21 -11 -60 2 -60 20 0 6 -11 10 -25 10 -30 0 -31 -9 -4 -44 17 -21 29
-26 68 -26 106 0 126 96 25 121 -48 12 -67 35 -43 50 19 12 25 11 43 -6 16
-17 66 -21 66 -5 0 5 -10 18 -22 30 -27 25 -93 27 -126 4z"/>
<path d="M823 295 c-12 -9 -27 -32 -32 -51 -22 -79 21 -144 93 -144 51 0 93
25 75 46 -8 10 -16 11 -29 4 -27 -15 -56 -12 -74 6 -28 27 -18 34 55 34 l71 0
-7 33 c-12 57 -37 82 -86 85 -28 2 -52 -3 -66 -13z m95 -47 c3 -15 -4 -18 -38
-18 -38 0 -40 1 -30 21 14 25 63 23 68 -3z"/>
<path d="M1010 205 l0 -105 25 0 c24 0 25 2 25 68 0 73 10 92 47 92 18 0 23 6
23 25 0 19 -5 25 -23 25 -13 0 -28 -5 -35 -12 -9 -9 -12 -9 -12 0 0 7 -11 12
-25 12 l-25 0 0 -105z"/>
<path d="M1556 279 c-38 -45 -37 -110 3 -150 24 -23 38 -29 73 -29 50 1 81 20
72 44 -7 18 -20 21 -29 6 -9 -14 -58 -13 -73 2 -28 28 -13 38 53 38 63 0 65 1
65 25 0 33 -25 81 -45 89 -9 3 -34 6 -55 6 -30 0 -44 -6 -64 -31z m104 -29
c10 -18 8 -20 -30 -20 -43 0 -43 0 -34 24 9 23 51 20 64 -4z"/>
<path d="M1740 304 c0 -6 16 -72 41 -166 8 -30 15 -38 33 -38 20 0 26 9 43 68
l20 67 20 -65 c18 -55 24 -65 44 -65 21 0 26 10 50 103 l27 102 -28 0 c-25 0
-28 -4 -35 -46 -13 -90 -20 -94 -40 -20 -16 57 -21 67 -39 64 -15 -2 -25 -18
-39 -68 -11 -36 -21 -60 -23 -55 -1 6 -8 36 -14 68 -10 51 -14 57 -36 57 -13
0 -24 -3 -24 -6z"/>
<path d="M2060 288 c-38 -41 -16 -80 54 -99 40 -11 57 -36 35 -50 -20 -13 -27
-11 -49 11 -24 24 -60 27 -60 5 0 -30 38 -55 83 -55 58 0 89 23 85 63 -3 31
-10 37 -82 69 -32 14 -36 28 -12 43 10 6 20 4 34 -8 22 -20 62 -23 62 -4 0 48
-112 66 -150 25z"/>
</g>
</svg>
